<?xml version="1.0" standalone="no"?>
<!DOCTYPE svg PUBLIC "-//W3C//DTD SVG 20010904//EN"
 "http://www.w3.org/TR/2001/REC-SVG-20010904/DTD/svg10.dtd">
<svg version="1.0" xmlns="http://www.w3.org/2000/svg"
 width="500.000000pt" height="500.000000pt" viewBox="0 0 500.000000 500.000000"
 preserveAspectRatio="xMidYMid meet">

<g transform="translate(0.000000,500.000000) scale(0.100000,-0.100000)"
fill="#000000" stroke="none">
<path d="M0 2500 l0 -2500 2500 0 2500 0 0 2500 0 2500 -2500 0 -2500 0 0
-2500z m4508 2018 c7 -7 12 -15 12 -19 0 -4 -127 -126 -282 -270 -156 -144
-307 -285 -336 -313 l-53 -51 -1357 -10 -1357 -10 0 -1360 0 -1360 1360 -3
1360 -2 -682 682 c-448 448 -683 690 -683 703 0 20 6 20 1008 17 l1009 -2 6
-452 c4 -248 7 -708 7 -1021 l0 -569 -1017 6 c-560 3 -1465 9 -2011 12 l-992
6 0 2009 0 2009 1993 3 c1095 1 1994 3 1998 5 3 1 10 -3 17 -10z"/>
<path d="M540 2800 l0 -1680 275 0 275 0 2 1383 3 1382 1350 8 c743 4 1359 10
1371 12 17 4 275 236 562 507 l72 68 -1955 0 -1955 0 0 -1680z"/>
<path d="M2807 2225 l258 -254 703 -1 702 0 0 255 0 255 -961 0 -961 0 259
-255z"/>
<path d="M3510 1525 l406 -405 282 0 282 0 0 338 c0 185 -3 367 -7 405 l-6 67
-681 0 -681 0 405 -405z"/>
<path d="M540 810 l0 -270 275 0 275 0 0 270 0 270 -275 0 -275 0 0 -270z"/>
<path d="M1130 811 l0 -269 373 -6 c204 -3 953 -8 1662 -11 l1290 -6 -280 281
-280 280 -1382 0 -1383 0 0 -269z"/>
<path d="M4215 820 c143 -143 261 -260 262 -260 2 0 3 117 3 260 l0 260 -262
0 -263 0 260 -260z"/>
</g>
</svg>
