<?xml version="1.0" standalone="no"?>
<!DOCTYPE svg PUBLIC "-//W3C//DTD SVG 20010904//EN"
 "http://www.w3.org/TR/2001/REC-SVG-20010904/DTD/svg10.dtd">
<svg version="1.0" xmlns="http://www.w3.org/2000/svg"
 width="1879.000000pt" height="3895.000000pt" viewBox="0 0 1879.000000 3895.000000"
 preserveAspectRatio="xMidYMid meet">

<g transform="translate(0.000000,3895.000000) scale(0.100000,-0.100000)"
fill="#000000" stroke="none">
<path d="M0 33993 c0 -2726 2 -4954 4 -4952 1 2 380 714 842 1583 576 1086
841 1574 847 1565 4 -8 749 -1409 1655 -3114 l1647 -3100 -2497 -3 -2498 -2 0
-6452 c0 -3548 2 -6449 3 -6447 2 2 269 503 593 1113 405 763 591 1104 597
1095 4 -8 749 -1409 1655 -3114 l1647 -3100 -2247 -3 -2248 -2 0 -4530 0
-4530 1576 2 1576 3 663 1248 c365 686 666 1248 670 1248 4 0 305 -562 670
-1248 l663 -1248 4184 -2 4183 -3 1219 2296 c671 1262 1222 2291 1226 2287 4
-4 476 -892 1050 -1973 573 -1081 1058 -1992 1076 -2025 l34 -60 0 6032 0
6033 -2738 2 -2737 3 1652 3110 c909 1711 1656 3109 1659 3108 3 -1 486 -906
1073 -2010 587 -1104 1072 -2017 1079 -2028 9 -15 11 954 12 4037 l0 4058
-1653 2 -1652 3 1652 3110 1653 3110 0 2777 0 2778 -1958 2 -1957 3 1137 2140
c626 1177 1138 2143 1138 2148 0 4 -3859 7 -8575 7 l-8575 0 0 -4957z"/>
<path d="M16050 36818 c-623 -1173 -1135 -2136 -1137 -2140 -2 -5 869 -8 1936
-8 l1941 0 0 2140 0 2140 -804 0 -803 0 -1133 -2132z"/>
<path d="M1492 31793 c-105 -197 -483 -909 -841 -1583 l-651 -1225 0 -1497 0
-1498 2480 0 c2359 0 2480 1 2472 18 -68 131 -3257 6129 -3262 6135 -4 5 -93
-153 -198 -350z"/>
<path d="M17153 25966 l-1632 -3071 1631 -3 c897 -1 1633 -1 1635 1 2 2 2
1385 1 3074 l-3 3070 -1632 -3071z"/>
<path d="M16604 18739 c-9 -19 -738 -1391 -1619 -3049 -881 -1658 -1610 -3030
-1619 -3047 l-17 -33 2721 0 2720 0 0 1046 0 1046 -1076 2027 c-592 1114
-1080 2030 -1085 2035 -4 4 -15 -7 -25 -25z"/>
<path d="M1114 15113 c-37 -70 -303 -571 -591 -1112 l-523 -985 0 -1968 0
-1968 2230 0 c2121 0 2230 1 2222 18 -68 131 -3257 6129 -3262 6135 -4 5 -38
-49 -76 -120z"/>
<path d="M16604 4509 c-9 -19 -548 -1033 -1197 -2254 -648 -1221 -1183 -2228
-1188 -2238 -9 -16 103 -17 2281 -17 l2290 0 0 236 0 236 -1076 2027 c-592
1114 -1080 2030 -1085 2035 -4 4 -15 -7 -25 -25z"/>
<path d="M4464 2429 c-9 -19 -302 -570 -650 -1226 -349 -656 -634 -1195 -634
-1198 0 -3 587 -5 1305 -5 718 0 1305 2 1305 5 0 8 -1291 2438 -1301 2449 -4
4 -15 -7 -25 -25z"/>
</g>
</svg>
